<svg id="Capa_1" enable-background="new 0 0 507.45 507.45" height="512" viewBox="0 0 507.45 507.45" width="512" xmlns="http://www.w3.org/2000/svg"><g><g><path d="m142.515 504v-39.646c-52.23-142.065 1.63-191.619 1.63-191.619l31.32-15.951 177.31-90.293s82.89 105.779-1.11 250.516l-1.012 86.006" fill="#ffcebf"/><path d="m174.165 461.48v42.37l-31.65.15v-39.65c-52.23-142.06 1.63-191.62 1.63-191.62l30.61-15.59c-7.86 8.59-51.84 64.94-.59 204.34z" fill="#ffb09e"/><path d="m475.419 267.868h-445.508c-11.375 0-20.596-9.221-20.596-20.596v-218.626c0-11.375 9.221-20.596 20.596-20.596h445.509c11.375 0 20.596 9.221 20.596 20.596v218.626c-.001 11.375-9.222 20.596-20.597 20.596z" fill="#6cf5c2"/><circle cx="252.213" cy="137.508" fill="#05e39c" r="89.747"/><path d="m310.344 296.848v-111.387c0-20.845-14.979-37.743-33.457-37.743-18.478 0-33.457 16.898-33.457 37.743v91.135s-48.962 29.458-31.009 93.897" fill="#ffcebf"/><path d="m59.915 267.87h-30c-11.38 0-20.6-9.22-20.6-20.6v-218.62c0-11.38 9.22-20.6 20.6-20.6h30c-11.38 0-20.6 9.22-20.6 20.6v218.62c0 11.38 9.22 20.6 20.6 20.6z" fill="#05e39c"/><path d="m288.869 150.215c1.318.571 1.504 2.378.329 3.204-2.171 1.526-4.174 3.326-5.973 5.361-6.06 6.82-9.8 16.26-9.8 26.68v85.143c0 3.6-1.668 6.983-4.494 9.214-9.594 7.574-31.154 28.677-30.442 64.948.074 3.781-1.66 7.374-4.683 9.647l-19.182 14.425c-1.063.799-2.59.248-2.917-1.041-14.635-57.674 24.663-86.51 30.898-90.667.516-.344.82-.918.82-1.538v-90.13c0-10.42 3.74-19.86 9.8-26.68 6.06-6.84 14.42-11.06 23.66-11.06 4.228-.001 8.266.882 11.984 2.494z" fill="#ffb09e"/></g><g><path d="m349.515 465c-4.142 0-7.5 3.357-7.5 7.5v25.35c0 4.143 3.358 7.5 7.5 7.5s7.5-3.357 7.5-7.5v-25.35c0-4.143-3.358-7.5-7.5-7.5z"/><path d="m497.075 164c-4.142 0-7.5 3.357-7.5 7.5v73.71c0 7.218-5.873 13.09-13.09 13.09h-158.641v-49.055c20.136-18.407 31.621-44.349 31.621-71.734 0-53.624-43.626-97.25-97.25-97.25s-97.25 43.626-97.25 97.25c0 24.314 9.021 47.587 25.401 65.532 14.722 16.129 34.255 26.723 55.564 30.318v24.939h-140.765c-4.142 0-7.5 3.357-7.5 7.5s3.358 7.5 7.5 7.5h37.678c-13.39 18.692-40.028 74.484 2.172 188.825v37.825c0 4.143 3.358 7.5 7.5 7.5s7.5-3.357 7.5-7.5v-39.17c0-.893-.16-1.778-.471-2.615-25.974-69.806-24.571-115.496-18.821-141.534 6.083-27.545 18.184-39.346 18.507-39.655 1.112-1.025 1.84-2.31 2.184-3.676h83.686c-4.93 3.788-13.097 11.043-20.2 22-9.959 15.362-19.728 41.228-9.704 77.206.924 3.317 3.938 5.489 7.221 5.489.666 0 1.344-.09 2.017-.277 3.99-1.111 6.324-5.247 5.212-9.237-16.131-57.902 25.878-84.374 27.651-85.458 2.254-1.356 3.633-3.796 3.633-6.427v-91.135c0-16.676 11.644-30.243 25.957-30.243s25.957 13.567 25.957 30.243v111.388c0 4.143 3.358 7.5 7.5 7.5s7.5-3.357 7.5-7.5v-23.549h65.695c-2.658 31.779-13.627 105.404-40.319 146.624-.786 1.214-1.205 2.63-1.205 4.076v14.5c0 4.143 3.358 7.5 7.5 7.5s7.5-3.357 7.5-7.5v-12.319c27.792-44.579 39.002-120.931 41.571-152.881h77.899c15.489 0 28.09-12.601 28.09-28.09v-73.71c0-4.143-3.358-7.5-7.5-7.5zm-220.188-23.782c-22.584 0-40.957 20.296-40.957 45.243v32.676c-38.136-7.565-65.965-40.877-65.965-80.626 0-45.353 36.897-82.25 82.25-82.25s82.25 36.897 82.25 82.25c0 18.083-5.92 35.423-16.621 49.568v-1.617c0-24.948-18.373-45.244-40.957-45.244z"/><path d="m476.485 0h-445.51c-15.495 0-28.1 12.605-28.1 28.1v217.11c0 15.489 12.605 28.09 28.1 28.09h30.19c4.142 0 7.5-3.357 7.5-7.5s-3.358-7.5-7.5-7.5h-30.19c-7.223 0-13.1-5.872-13.1-13.09v-217.11c0-7.223 5.877-13.1 13.1-13.1h445.51c7.218 0 13.09 5.877 13.09 13.1v109.4c0 4.143 3.358 7.5 7.5 7.5s7.5-3.357 7.5-7.5v-109.4c0-15.495-12.601-28.1-28.09-28.1z"/></g></g></svg>