<svg id="Layer_5" enable-background="new 0 0 64 64" height="512" viewBox="0 0 64 64" width="512" xmlns="http://www.w3.org/2000/svg"><g><g><g><path d="m46 52-1.12-1.12c-.56-.56-1.33-.88-2.12-.88h-.76v-6h-11.12c1.85-5.11 6.42-8.97 12.07-9.73l2.05-.27c0 1.66 1.34 3 3 3 .83 0 1.58-.34 2.12-.88s.88-1.29.88-2.12c3.24.88 6 2.8 7.93 5.34 1.94 2.54 3.07 5.7 3.07 9.06 0 5.3-4.3 9.6-9.6 9.6h-6.4z" fill="#4fc1e9"/></g><g><path d="m59 10h-24c0-4.42 3.58-8 8-8h8c4.42 0 8 3.58 8 8z" fill="#ff826e"/></g><g><path d="m61 11v2c0 .55-.45 1-1 1h-1-8-14-3c-.55 0-1-.45-1-1v-2c0-.55.45-1 1-1h1 24 1c.55 0 1 .45 1 1z" fill="#fc6e51"/></g><g><path d="m59 14v6.07c0 4.17-2.59 7.9-6.49 9.36l-1.51.57v-4l2.67-2c.84-.63 1.33-1.62 1.33-2.67 0-.92-.37-1.75-.98-2.35-.6-.61-1.43-.98-2.35-.98h-.67v-4z" fill="#656d78"/></g><g><path d="m14 7v8h-6-6v-8z" fill="#fcd770"/></g><g><path d="m14 26v3h-12v-6h6 6z" fill="#fcd770"/></g><g><path d="m30 23v6h-6-6v-3-3z" fill="#fcd770"/></g><g><path d="m18 36v8h-4c-2.21 0-4-1.79-4-4 0-1.1.45-2.1 1.17-2.83.73-.72 1.73-1.17 2.83-1.17z" fill="#ffeaa7"/></g><g><path d="m10 40c0 2.21 1.79 4 4 4h4 6 6.88 11.12v6h-1c-1.66 0-3 1.34-3 3v2c0 1.66 1.34 3 3 3h1v4h-28c-2.21 0-4-1.79-4-4z" fill="#e6e9ed"/></g><g><path d="m46 52v6h-4-1c-1.66 0-3-1.34-3-3v-2c0-1.66 1.34-3 3-3h1 .76c.79 0 1.56.32 2.12.88z" fill="#f0d0b4"/></g><g><path d="m54.02 18.98c.61.6.98 1.43.98 2.35 0 1.05-.49 2.04-1.33 2.67l-2.67 2v4 4c0 .83-.34 1.58-.88 2.12s-1.29.88-2.12.88c-1.66 0-3-1.34-3-3v-1-3h-4c-2.21 0-4-1.79-4-4v-3l-.77-.38c-.75-.38-1.23-1.15-1.23-2 0-.4.12-.8.35-1.14l1.65-2.48v-3h14v4h.67c.92 0 1.75.37 2.35.98z" fill="#f0d0b4"/></g></g><g><path d="m52 33.256v-2.563l.862-.323c4.27-1.601 7.138-5.74 7.138-10.3v-5.07c1.103 0 2-.897 2-2v-2c0-1.103-.897-2-2-2h-.059c-.5-4.493-4.317-8-8.941-8h-8c-4.624 0-8.442 3.507-8.941 8h-.059c-1.103 0-2 .897-2 2v2c0 1.103.897 2 2 2h2v1.697l-1.487 2.229c-.336.505-.513 1.092-.513 1.697 0 1.23.684 2.336 1.785 2.888l.215.107v2.382c0 2.757 2.243 5 5 5h3v2.124l-1.178.157c-5.679.758-10.447 4.459-12.613 9.719h-5.209v-13h6v-8h-14v3h-2v-3h-6v-6h6v-10h-14v10h6v6h-6v8h14v-3h2v3h6v13h-4v-8h-5c-2.757 0-5 2.243-5 5v18c0 2.757 2.243 5 5 5h29v-4h9.402c5.844 0 10.598-4.755 10.598-10.599 0-6.905-4.486-13.025-11-15.145zm-49-25.256h10v6h-10zm10 20h-10v-4h10zm6-4h10v4h-10zm39-3.93c0 3.73-2.347 7.117-5.84 8.427l-.16.06v-2.057l2.267-1.7c1.085-.815 1.733-2.111 1.733-3.467 0-2.277-1.766-4.149-4-4.32v-2.013h6zm-15-17.07h8c3.519 0 6.432 2.614 6.92 6h-21.84c.488-3.386 3.401-6 6.92-6zm-9 8h26v2h-26zm7 18c-1.654 0-3-1.346-3-3v-3.618l-1.32-.66c-.42-.21-.68-.631-.68-1.099 0-.21.062-.413.177-.587l1.823-2.733v-2.303h12v4h1.667c1.286 0 2.333 1.047 2.333 2.333 0 .73-.349 1.429-.934 1.867l-3.066 2.3v8.5c0 1.103-.897 2-2 2s-2-.897-2-2v-5zm-27 8h3v6h-3c-1.654 0-3-1.346-3-3s1.346-3 3-3zm27 24h-27c-1.654 0-3-1.346-3-3v-14.026c.838.635 1.87 1.026 3 1.026h27v4c-2.206 0-4 1.794-4 4v2c0 2.206 1.794 4 4 4zm4-4h-4c-1.103 0-2-.897-2-2v-2c0-1.103.897-2 2-2h1.757c.534 0 1.036.208 1.415.586l.828.828zm7.402 0h-5.402v-4h3.879c1.634 0 3.171-.637 4.328-1.793 1.156-1.155 1.793-2.692 1.793-4.328v-2.879h-2v2.879c0 1.102-.429 2.136-1.207 2.914-.768.767-1.83 1.207-2.914 1.207h-4.465l-.828-.828c-.698-.698-1.61-1.089-2.586-1.148v-6.024h-10.602c2.026-4.193 6.001-7.111 10.689-7.736l1.092-.145c.487 1.659 2.006 2.881 3.821 2.881 1.751 0 3.226-1.138 3.767-2.707 5.486 1.966 9.233 7.209 9.233 13.108 0 4.742-3.857 8.599-8.598 8.599z"/><path d="m5 10h6v2h-6z"/><path d="m49 42h4v2h-4z"/></g></g></svg>