<svg id="Layer_1_1_" enable-background="new 0 0 64 64" height="512" viewBox="0 0 64 64" width="512" xmlns="http://www.w3.org/2000/svg"><path d="m12 2h50v47h-50z" fill="#ded8d0"/><path d="m62 28.66144c-9.52057 8.12451-27.92676 14.11761-50 15.8324v4.50616h50z" fill="#c9c4bd"/><circle cx="13" cy="32" fill="#50b6cf" r="5"/><path d="m16.85468 28.85126c.08746.37036.14532.75171.14532 1.14874 0 2.76141-2.23859 5-5 5-1.56116 0-2.93774-.73029-3.85468-1.85126.52088 2.20526 2.4903 3.85126 4.85468 3.85126 2.76141 0 5-2.23859 5-5 0-1.20026-.44037-2.28693-1.14532-3.14874z" fill="#3cadc9"/><path d="m6 41h2v21c0 .07192.0583.13022.13022.13022h4.73957c.07191 0 .13021-.0583.13021-.13022v-13 13c0 .07192.0583.13022.13022.13022h4.73957c.07191 0 .13021-.0583.13021-.13022v-20.86978c0-.07192.0583-.13022.13022-.13022h6.81585c.03454 0 .06766-.01372.09208-.03814l6.86978-6.86979c.05085-.05085.05085-.1333 0-.18415l-2.81585-2.81585c-.05085-.05085-.1333-.05085-.18415 0l-5.86978 5.86978c-.02443.02443-.05755.03815-.09209.03815h-16.94606c-2.20914 0-4 1.79086-4 4v7h4z" fill="#50b6cf"/><path d="m17 20v-10l10 5z" fill="#e34e4b"/><path d="m32 20v-10l10 5z" fill="#e34e4b"/><path d="m24 14h8v2h-8z" fill="#223b5a"/><path d="m39 14h9v2h-9z" fill="#223b5a"/><path d="m48 20v-10l10 5z" fill="#e34e4b"/><path d="m32 34-3-3-6 6h-4.55554l-10.44446 13.42859v11.70163h5 5v-21.13022h7z" fill="#3cadc9"/><path d="m12 49h2v13.13h-2z" fill="#2ea3bf"/><path d="m17 16.73016v3.26984l10-5-3.32593-1.66296c-1.39752 1.63879-3.7973 2.87548-6.67407 3.39312z" fill="#de4542"/><path d="m32 16.73016v3.26984l10-5-3.32593-1.66296c-1.39752 1.63879-3.7973 2.87548-6.67407 3.39312z" fill="#de4542"/><path d="m48 16.73016v3.26984l10-5-3.32593-1.66296c-1.39752 1.63879-3.7973 2.87548-6.67407 3.39312z" fill="#de4542"/><g fill="#223b5a"><path d="m37 27h4v2h-4z"/><path d="m43 27h14v2h-14z"/><path d="m37 32h4v2h-4z"/><path d="m43 32h14v2h-14z"/><path d="m37 37h4v2h-4z"/><path d="m43 37h14v2h-14z"/><path d="m21 44h2v2h-2z"/><path d="m25 44h2v2h-2z"/><path d="m29 44h2v2h-2z"/><path d="m33 44h2v2h-2z"/><path d="m37 44h2v2h-2z"/><path d="m41 44h2v2h-2z"/><path d="m45 44h2v2h-2z"/><path d="m49 44h2v2h-2z"/><path d="m53 44h2v2h-2z"/><path d="m57 44h2v2h-2z"/></g></svg>