<svg id="Capa_1" enable-background="new 0 0 512 512" height="512" viewBox="0 0 512 512" width="512" xmlns="http://www.w3.org/2000/svg"><g><g><path d="m456 247h-100v-90c0-8.284 6.716-15 15-15h70c8.284 0 15 6.716 15 15z" fill="#f2ba23"/></g><path d="m456 247v-90c0-8.284-6.716-15-15-15h-35v105z" fill="#d89d1e"/><path d="m241 327h30v170h-30z" fill="#e2e2ea"/><path d="m256 327h15v170h-15z" fill="#c6d0da"/><g><path d="m306 247h-100v-90c0-8.284 6.716-15 15-15h70c8.284 0 15 6.716 15 15z" fill="#f2ba23"/></g><path d="m306 247v-90c0-8.284-6.716-15-15-15h-35v105z" fill="#d89d1e"/><g><path d="m156 247h-100v-90c0-8.284 6.716-15 15-15h70c8.284 0 15 6.716 15 15z" fill="#f2ba23"/></g><path d="m156 247v-90c0-8.284-6.716-15-15-15h-35v105z" fill="#d89d1e"/><g><path d="m145.093 4.394-60.104 60.103-24.749-24.748c-5.857-5.858-15.355-5.858-21.213 0s-5.858 15.355 0 21.213l35.355 35.355c2.929 2.929 6.768 4.394 10.606 4.394s7.678-1.464 10.606-4.394l70.711-70.71c5.858-5.857 5.858-15.355 0-21.213-5.856-5.858-15.353-5.859-21.212 0z" fill="#a4e6f8"/><path d="m472.973 4.394c-5.857-5.858-15.355-5.858-21.213 0l-60.104 60.104-24.749-24.749c-5.857-5.858-15.355-5.858-21.213 0s-5.858 15.355 0 21.213l35.355 35.355c2.929 2.929 6.768 4.394 10.606 4.394s7.678-1.464 10.606-4.394l70.71-70.71c5.86-5.858 5.86-15.355.002-21.213z" fill="#6ed2f0"/><path d="m301.962 4.394c-5.858-5.857-15.356-5.858-21.213 0l-24.749 24.749-24.749-24.749c-5.857-5.858-15.355-5.858-21.213 0s-5.858 15.355 0 21.213l24.749 24.749-24.749 24.749c-5.858 5.857-5.858 15.355 0 21.213 2.929 2.929 6.767 4.394 10.606 4.394 3.838 0 7.678-1.465 10.606-4.394l24.75-24.75 24.749 24.749c2.929 2.929 6.768 4.394 10.606 4.394s7.678-1.464 10.606-4.394c5.858-5.858 5.858-15.355 0-21.213l-24.749-24.749 24.749-24.749c5.859-5.857 5.859-15.354.001-21.212z" fill="#ff6378"/></g><path d="m41 327h30v170h-30z" fill="#e2e2ea"/><path d="m96 512h-80c-8.284 0-15-6.716-15-15s6.716-15 15-15h80c8.284 0 15 6.716 15 15s-6.716 15-15 15z" fill="#f1f4f6"/><path d="m441 327h30v170h-30z" fill="#c6d0da"/><path d="m496 512h-80c-8.284 0-15-6.716-15-15s6.716-15 15-15h80c8.284 0 15 6.716 15 15s-6.716 15-15 15z" fill="#e2e2ea"/><path d="m296 512h-80c-8.284 0-15-6.716-15-15s6.716-15 15-15h80c8.284 0 15 6.716 15 15s-6.716 15-15 15z" fill="#f1f4f6"/><g><path d="m456 327h-400c-22.091 0-40-17.909-40-40 0-22.091 17.909-40 40-40h400c22.091 0 40 17.909 40 40 0 22.092-17.908 40-40 40z" fill="#0a617d"/><path d="m456 247h-200v80h200c22.091 0 40-17.909 40-40 0-22.091-17.909-40-40-40z" fill="#08475e"/><circle cx="456" cy="287" fill="#c6d0da" r="40"/><circle cx="256" cy="287" fill="#e2e2ea" r="40"/><path d="m296 287c0-22.091-17.909-40-40-40v80c22.091 0 40-17.908 40-40z" fill="#c6d0da"/><circle cx="56" cy="287" fill="#e2e2ea" r="40"/><path d="m456 232h-400c-30.327 0-55 24.673-55 55s24.673 55 55 55h400c30.327 0 55-24.673 55-55s-24.673-55-55-55zm-225 55c0-13.785 11.215-25 25-25s25 11.215 25 25-11.215 25-25 25-25-11.215-25-25zm-23.965 25h-102.07c3.848-7.507 6.035-16 6.035-25s-2.187-17.493-6.035-25h102.07c-3.848 7.507-6.035 16-6.035 25s2.187 17.493 6.035 25zm97.93-50h102.07c-3.848 7.507-6.035 16-6.035 25s2.187 17.493 6.035 25h-102.07c3.848-7.507 6.035-16 6.035-25s-2.187-17.493-6.035-25zm-273.965 25c0-13.785 11.215-25 25-25s25 11.215 25 25-11.215 25-25 25-25-11.215-25-25zm425 25c-13.785 0-25-11.215-25-25s11.215-25 25-25 25 11.215 25 25-11.215 25-25 25z" fill="#f1f4f6"/><path d="m456 232h-200v30c13.785 0 25 11.215 25 25s-11.215 25-25 25v30h200c30.327 0 55-24.673 55-55s-24.673-55-55-55zm-48.965 80h-102.07c3.848-7.507 6.035-16 6.035-25s-2.187-17.493-6.035-25h102.07c-3.848 7.507-6.035 16-6.035 25s2.187 17.493 6.035 25zm48.965 0c-13.785 0-25-11.215-25-25s11.215-25 25-25 25 11.215 25 25-11.215 25-25 25z" fill="#e2e2ea"/></g><g><g><path d="m291.356 100.711c3.839 0 7.678-1.464 10.606-4.394 5.858-5.858 5.858-15.355 0-21.213l-24.749-24.749 24.749-24.749c5.858-5.857 5.858-15.355 0-21.213-5.858-5.857-15.356-5.858-21.213 0l-24.749 24.75v42.426l24.749 24.749c2.929 2.928 6.768 4.393 10.607 4.393z" fill="#e20059"/></g></g><g><path d="m296 482h-40v30h40c8.284 0 15-6.716 15-15s-6.716-15-15-15z" fill="#e2e2ea"/></g></g></svg>