<svg id="_x33_0" enable-background="new 0 0 64 64" height="512" viewBox="0 0 64 64" width="512" xmlns="http://www.w3.org/2000/svg"><g><g><g><path d="m62 46v8h-35.86l3.86-6v-2z" fill="#fcd770"/></g><g><path d="m30 34h24v8h-24z" fill="#fcd770"/></g><g><path d="m46 22v8h-16v-6.41c.88-.47 1.73-1 2.53-1.6l.01.01z" fill="#fcd770"/></g><g><path d="m24.86 56-3.32 5.16c-.34.52-.92.84-1.54.84s-1.2-.32-1.54-.84l-3.32-5.16z" fill="#aab2bd"/></g><g><path d="m14 25.21v18.79c0 3.31 2.69 6 6 6 1.66 0 3.16-.67 4.24-1.76 1.09-1.08 1.76-2.58 1.76-4.24v-18.79c1.39-.4 2.73-.94 4-1.62v6.41 4 8 4 2l-3.86 6-1.28 2h-9.72l-5.14-8v-24.41c1.27.68 2.61 1.22 4 1.62z" fill="#b4dd7f"/></g><g><path d="m14 25.21c1.82.52 3.72.79 5.66.79h.34.34c1.94 0 3.84-.27 5.66-.79v18.79c0 1.66-.67 3.16-1.76 4.24-1.08 1.09-2.58 1.76-4.24 1.76-3.31 0-6-2.69-6-6z" fill="#ffeaa7"/></g><g><path d="m48 8h10v10h-10z" fill="#ff826e"/></g><g><path d="m30 16c0-5.52-4.48-10-10-10h.34c1.63 0 3.22.19 4.77.56 1.35.32 2.67.78 3.93 1.37 3.67 1.71 6.81 4.49 8.96 8.07-1.43 2.38-3.3 4.41-5.47 5.99-.8.6-1.65 1.13-2.53 1.6-1.27.68-2.61 1.22-4 1.62-1.82.52-3.72.79-5.66.79h-.34c5.52 0 10-4.48 10-10z" fill="#ccd1d9"/></g><g><path d="m10 16c0 5.52 4.48 10 10 10h-.34c-1.94 0-3.84-.27-5.66-.79-1.39-.4-2.73-.94-4-1.62-3.26-1.73-6.04-4.33-8-7.59 1.86-3.1 4.47-5.6 7.51-7.32.47-.27.96-.52 1.45-.75 1.26-.59 2.57-1.05 3.93-1.37 1.55-.37 3.14-.56 4.77-.56h.34c-5.52 0-10 4.48-10 10z" fill="#ccd1d9"/></g><g><path d="m30 16c0 5.52-4.48 10-10 10s-10-4.48-10-10 4.48-10 10-10 10 4.48 10 10z" fill="#4fc1e9"/></g><g><path d="m20 10c3.31 0 6 2.69 6 6s-2.69 6-6 6-6-2.69-6-6 2.69-6 6-6z" fill="#69d6f4"/></g><g><circle cx="20" cy="16" fill="#3bafda" r="2"/></g></g><g><path d="m20 23c3.859 0 7-3.14 7-7s-3.141-7-7-7-7 3.14-7 7 3.141 7 7 7zm0-12c2.757 0 5 2.243 5 5s-2.243 5-5 5-5-2.243-5-5 2.243-5 5-5z"/><path d="m20 19c1.654 0 3-1.346 3-3s-1.346-3-3-3-3 1.346-3 3 1.346 3 3 3zm0-4c.552 0 1 .449 1 1s-.448 1-1 1-1-.449-1-1 .448-1 1-1z"/><path d="m19 31h2v2h-2z"/><path d="m19 37h2v2h-2z"/><path d="m19 43h2v2h-2z"/><path d="m59 8.303 3.832-5.748-1.664-1.109-3.703 5.554h-10.465v12h12zm-10 8.697v-8h7.132l-2.287 3.43-2.138-2.137-1.414 1.414 3.862 3.863 2.845-4.267v5.697z"/><path d="m63 45h-32v-2h24v-10h-24v-2h16v-10h-11.743c1.381-1.315 2.6-2.817 3.601-4.485l.308-.515-.309-.515c-2.045-3.409-4.989-6.128-8.415-7.946l2.415-4.025-1.715-1.029-2.514 4.189c-.754-.315-1.527-.582-2.314-.811l.655-2.621-1.939-.485-.658 2.633c-1.105-.213-2.233-.332-3.372-.368v-4.022h-2v4.022c-1.139.036-2.267.155-3.372.368l-.658-2.633-1.94.486.655 2.621c-.787.229-1.56.496-2.314.811l-2.514-4.19-1.714 1.03 2.415 4.025c-3.426 1.818-6.37 4.537-8.415 7.946l-.309.514.309.515c1.934 3.224 4.668 5.838 7.857 7.65v24.128l8.617 13.406c.524.815 1.414 1.301 2.383 1.301s1.859-.486 2.382-1.301l4.307-6.699h36.311zm-10-10v6h-22v-6zm-8-12v6h-14v-4.835c.625-.355 1.228-.749 1.815-1.165zm-8.178-7c-2.111 3.28-5.156 5.812-8.657 7.344 1.756-1.95 2.835-4.52 2.835-7.344s-1.079-5.394-2.834-7.344c3.501 1.532 6.545 4.064 8.656 7.344zm-16.822-9c4.963 0 9 4.038 9 9s-4.037 9-9 9-9-4.038-9-9 4.037-9 9-9zm-5 19.474c1.518.339 3.079.526 4.662.526h.676c1.583 0 3.144-.187 4.662-.526v17.526c0 2.757-2.243 5-5 5s-5-2.243-5-5zm-11.822-10.474c2.111-3.28 5.156-5.812 8.657-7.344-1.756 1.95-2.835 4.52-2.835 7.344s1.079 5.394 2.834 7.344c-3.501-1.532-6.545-4.064-8.656-7.344zm7.822 9.159c.654.288 1.32.548 2 .77v18.071c0 3.86 3.141 7 7 7s7-3.14 7-7v-18.071c.68-.222 1.346-.482 2-.77v22.547l-4.689 7.294h-8.623l-4.688-7.293zm9.699 35.459c-.307.479-1.091.479-1.399 0l-2.326-3.618h6.051zm40.301-7.618h-33.026l3.026-4.707v-1.293h30z"/></g></g></svg>