<svg id="Capa_1" enable-background="new 0 0 512 512" height="512" viewBox="0 0 512 512" width="512" xmlns="http://www.w3.org/2000/svg"><g><g><path d="m294.782 328.326h34.738v59.762h-34.738z" fill="#365e7d" transform="matrix(.707 -.707 .707 .707 -161.864 325.641)"/></g><g><path d="m310.137 321.966h16.749v59.762h-16.749z" fill="#2b4d66" transform="matrix(.707 -.707 .707 .707 -155.504 328.275)"/></g><g><path d="m417.636 462.415-1.276 1.276c-11.687 11.687-30.635 11.687-42.322 0l-61.109-61.109c-2.731-2.731-2.731-7.16 0-9.891l33.707-33.707c2.731-2.731 7.16-2.731 9.891 0l61.109 61.109c11.687 11.687 11.687 30.635 0 42.322z" fill="#80b4fb"/></g><path d="m417.636 420.093-61.109-61.109c-2.731-2.731-7.16-2.731-9.891 0l-11.742 11.742 58.742 58.742c11.687 11.687 11.687 30.635 0 42.322l-.581.581c8.357.597 16.916-2.291 23.305-8.68l1.276-1.276c11.687-11.687 11.687-30.635 0-42.322z" fill="#61a2f9"/><g><circle cx="212.659" cy="258.715" fill="#cbe2ff" r="121.794"/></g><g><path d="m295.609 169.547c6.059 14.467 9.411 30.349 9.411 47.015 0 67.265-54.529 121.794-121.794 121.794-32.051 0-61.204-12.386-82.95-32.625 18.396 43.921 61.784 74.778 112.383 74.778 67.265 0 121.794-54.529 121.794-121.794 0-35.214-14.951-66.931-38.844-89.168z" fill="#bed8fb"/></g><g><path d="m421.475 226.052h-330.95c-49.996 0-90.525-40.529-90.525-90.525v-5.46c0-49.995 40.529-90.525 90.525-90.525h330.951c49.995 0 90.525 40.529 90.525 90.525v5.46c-.001 49.996-40.53 90.525-90.526 90.525z" fill="#cbe2ff"/></g><path d="m493.596 75.358c.019.755.029 1.512.029 2.271v5.46c0 49.995-40.529 90.525-90.525 90.525h-330.95c-29.437 0-55.588-14.054-72.121-35.815 1.205 48.946 41.26 88.253 90.496 88.253h330.951c49.995 0 90.525-40.529 90.525-90.525v-5.46c-.001-20.557-6.858-39.512-18.405-54.709z" fill="#bed8fb"/><g><g><circle cx="47.633" cy="132.798" fill="#80b4fb" r="8.624"/></g><g><circle cx="79.862" cy="132.798" fill="#80b4fb" r="8.624"/></g><g><circle cx="112.091" cy="132.798" fill="#80b4fb" r="8.624"/></g></g><g><path d="m95.302 226.052h234.714c-14.276-51.402-61.408-89.131-117.357-89.131s-103.081 37.729-117.357 89.131z" fill="#bed8fb"/></g><path d="m299.749 173.614h-174.179c-14.127 14.457-24.703 32.4-30.268 52.438h234.714c-5.565-20.038-16.14-37.981-30.267-52.438z" fill="#9dc6fb"/><path d="m297.217 173.614c5.036 13.358 7.803 27.829 7.803 42.948 0 3.194-.124 6.358-.366 9.49h25.362c-5.565-20.038-16.141-37.981-30.268-52.438z" fill="#80b4fb"/><g><circle cx="413.576" cy="132.798" fill="#b3e59f" r="57.897"/></g><path d="m470.457 143.562c-16.572 18.446-40.608 30.051-67.357 30.051h-30.581c10.487 10.548 25.008 17.081 41.057 17.081 28.295 0 51.834-20.303 56.881-47.132z" fill="#95d6a4"/><g><path d="m405.838 154.137c-1.975 0-3.951-.754-5.459-2.261l-13.62-13.62c-3.014-3.014-3.014-7.902 0-10.917 3.015-3.014 7.902-3.014 10.918 0l8.161 8.161 20.595-20.595c3.015-3.014 7.902-3.014 10.918 0 3.014 3.014 3.014 7.903 0 10.917l-26.054 26.054c-1.508 1.507-3.484 2.261-5.459 2.261z" fill="#f4fbff"/></g><g><path d="m212.659 388.228c-71.414 0-129.513-58.099-129.513-129.513s58.099-129.513 129.513-129.513c71.413 0 129.513 58.099 129.513 129.513s-58.099 129.513-129.513 129.513zm0-243.587c-62.901 0-114.074 51.173-114.074 114.074s51.173 114.074 114.074 114.074 114.074-51.173 114.074-114.074-51.173-114.074-114.074-114.074z" fill="#2b4d66"/></g></g></svg>