<svg height="512" viewBox="0 0 64 64" width="512" xmlns="http://www.w3.org/2000/svg"><g id="tablet-smartphone-brain-idea-leraning"><rect fill="#898890" height="34" rx="2" width="58" x="3" y="27"/><path d="m61 29v30a2.006 2.006 0 0 1 -2 2h-5a2.006 2.006 0 0 0 2-2v-30a2.006 2.006 0 0 0 -2-2h5a2.006 2.006 0 0 1 2 2z" fill="#787680"/><path d="m49 3h12v16h-12z" fill="#fee9ab"/><path d="m57 3h4v16h-4z" fill="#ffde55"/><path d="m7 31h50v26h-50z" fill="#46f8ff"/><path d="m53 31h4v26h-4z" fill="#00e7f0"/><path d="m46 27a14.428 14.428 0 0 1 -.57 4 14.643 14.643 0 0 1 -5.19 7.64 5.828 5.828 0 0 0 -2.24 4.67v1.69h-12v-1.69a5.888 5.888 0 0 0 -2.3-4.71 14.634 14.634 0 0 1 -5.13-7.6 14.287 14.287 0 0 1 .5-9.42 14.012 14.012 0 0 1 26.93 5.42z" fill="#ffd422"/><path d="m46 27a14.428 14.428 0 0 1 -.57 4 14.643 14.643 0 0 1 -5.19 7.64 5.828 5.828 0 0 0 -2.24 4.67v1.69h-4v-1.69a5.828 5.828 0 0 1 2.24-4.67 14.643 14.643 0 0 0 5.19-7.64 14.428 14.428 0 0 0 .57-4 14 14 0 0 0 -12-13.86 14.008 14.008 0 0 1 16 13.86z" fill="#ebbf00"/><path d="m39.74 23.41a3.981 3.981 0 0 1 0 7.18 3.881 3.881 0 0 1 .26 1.41 4 4 0 0 1 -8 0v-10a3.657 3.657 0 0 1 .13-1 4 4 0 0 1 7.87 1 3.881 3.881 0 0 1 -.26 1.41z" fill="#ffeb99"/><path d="m39.74 30.59a3.881 3.881 0 0 1 .26 1.41 3.994 3.994 0 0 1 -6 3.46 3.98 3.98 0 0 0 2-3.46 3.881 3.881 0 0 0 -.26-1.41 3.981 3.981 0 0 0 0-7.18 3.881 3.881 0 0 0 .26-1.41 3.977 3.977 0 0 0 -2.01-3.46 4 4 0 0 1 6.01 3.46 3.881 3.881 0 0 1 -.26 1.41 3.981 3.981 0 0 1 0 7.18z" fill="#ffde55"/><path d="m38 45a2.006 2.006 0 0 1 2 2 2.015 2.015 0 0 1 -2 2h-12a2.006 2.006 0 0 1 -2-2 2.015 2.015 0 0 1 2-2z" fill="#c0ab91"/><path d="m26 49h12a3.995 3.995 0 0 1 -4 4h-4a4 4 0 0 1 -4-4z" fill="#a78966"/><path d="m40 47a2.015 2.015 0 0 1 -2 2h-4a2.015 2.015 0 0 0 2-2 2.006 2.006 0 0 0 -2-2h4a2.006 2.006 0 0 1 2 2z" fill="#a78966"/><path d="m38 49a3.995 3.995 0 0 1 -4 4h-4a3.995 3.995 0 0 0 4-4z" fill="#957856"/><path d="m24.26 30.59a3.981 3.981 0 0 1 0-7.18 3.881 3.881 0 0 1 -.26-1.41 4 4 0 0 1 7.87-1 3.657 3.657 0 0 1 .13 1v10a4 4 0 0 1 -8 0 3.881 3.881 0 0 1 .26-1.41z" fill="#ffeb99"/><path d="m3 3h14v14h-14z" fill="#bdfdff"/><path d="m14 3h3v14h-3z" fill="#00e7f0"/><path d="m13 10-6 3v-6z" fill="#ff3051"/><path d="m59 26h-12.05a15 15 0 0 0 -28.8-4.8 15.367 15.367 0 0 0 -1.11 4.8h-12.04a3.009 3.009 0 0 0 -3 3v30a3.009 3.009 0 0 0 3 3h54a3.009 3.009 0 0 0 3-3v-30a3.009 3.009 0 0 0 -3-3zm-39-4.04a12.878 12.878 0 0 1 9.89-7.79 13.014 13.014 0 0 1 15.11 12.83 13.784 13.784 0 0 1 -5.36 10.84 6.844 6.844 0 0 0 -2.64 5.47v.69h-10v-.69a6.951 6.951 0 0 0 -2.69-5.51 13.682 13.682 0 0 1 -4.31-15.84zm6 26.04a1 1 0 0 1 0-2h12a1 1 0 0 1 0 2zm10.83 2a3.014 3.014 0 0 1 -2.83 2h-4a3.014 3.014 0 0 1 -2.83-2zm-13.73-10.61a4.938 4.938 0 0 1 1.9 3.92v.87a2.981 2.981 0 0 0 .09 5.66 4.987 4.987 0 0 0 4.91 4.16h4a4.987 4.987 0 0 0 4.91-4.16 2.981 2.981 0 0 0 .09-5.66v-.87a4.834 4.834 0 0 1 1.84-3.87 15.461 15.461 0 0 0 5.32-7.44h9.84v24h-48v-24h9.81a15.455 15.455 0 0 0 5.29 7.39zm36.9 19.61a1 1 0 0 1 -1 1h-54a1 1 0 0 1 -1-1v-30a1 1 0 0 1 1-1h12.04a14.954 14.954 0 0 0 .24 2h-10.28a1 1 0 0 0 -1 1v26a1 1 0 0 0 1 1h50a1 1 0 0 0 1-1v-26a1 1 0 0 0 -1-1h-10.31a16.557 16.557 0 0 0 .25-2h12.06a1 1 0 0 1 1 1z"/><path d="m43 27a5.006 5.006 0 0 0 -2.09-4.05 4.992 4.992 0 0 0 -8.91-3.93 4.99 4.99 0 0 0 -9 2.98 4.318 4.318 0 0 0 .1.95 4.962 4.962 0 0 0 -.01 8.1 4.988 4.988 0 0 0 8.91 3.92 4.985 4.985 0 0 0 9-2.97 4.318 4.318 0 0 0 -.1-.95 4.976 4.976 0 0 0 2.1-4.05zm-12 5a3 3 0 0 1 -6 0c0-.04.01-.07.01-.1a5.359 5.359 0 0 0 .99.1 5.037 5.037 0 0 0 2.5-.67l-1-1.74a2.926 2.926 0 0 1 -2.81.1 2.986 2.986 0 0 1 .02-5.39 2.946 2.946 0 0 1 2.79.11l1-1.74a5.1 5.1 0 0 0 -3.49-.56c0-.04-.01-.07-.01-.11a3 3 0 0 1 5.91-.73 2.753 2.753 0 0 1 .09.73zm8.29-2.3a2.946 2.946 0 0 1 -2.79-.11l-1 1.74a5.037 5.037 0 0 0 2.5.67 5.359 5.359 0 0 0 .99-.1c0 .03.01.06.01.1a3 3 0 0 1 -6 0v-10a2.614 2.614 0 0 1 .1-.75 3 3 0 0 1 5.9.75c0 .04-.01.07-.01.11a5.039 5.039 0 0 0 -3.49.56l1 1.74a2.926 2.926 0 0 1 2.81-.1 2.986 2.986 0 0 1 -.02 5.39z"/><path d="m3 18h14a1 1 0 0 0 1-1v-14a1 1 0 0 0 -1-1h-14a1 1 0 0 0 -1 1v14a1 1 0 0 0 1 1zm1-14h12v12h-12z"/><path d="m61 2h-12a1 1 0 0 0 -1 1v16a1 1 0 0 0 1 1h12a1 1 0 0 0 1-1v-16a1 1 0 0 0 -1-1zm-1 16h-10v-14h10z"/><path d="m13.447 9.105-6-3a1 1 0 0 0 -1.447.895v6a1 1 0 0 0 1.447.895l6-3a1 1 0 0 0 0-1.79zm-5.447 2.277v-2.764l2.764 1.382z"/><path d="m52 10h6v2h-6z"/><path d="m52 6h6v2h-6z"/><path d="m52 14h6v2h-6z"/><path d="m54 53v-4h-2v3h-3v2h4a1 1 0 0 0 1-1z"/><path d="m11 54h4v-2h-3v-3h-2v4a1 1 0 0 0 1 1z"/><path d="m52 39h2v-4a1 1 0 0 0 -1-1h-4v2h3z"/><path d="m12 36h3v-2h-4a1 1 0 0 0 -1 1v4h2z"/><path d="m31 4h2v4h-2z"/><path d="m20.5 6.813h2v4.001h-2z" transform="matrix(.866 -.5 .5 .866 -1.527 11.929)"/><path d="m40.5 7.813h4.001v2h-4.001z" transform="matrix(.5 -.866 .866 .5 13.62 41.215)"/></g></svg>